<?xml version="1.0" encoding="UTF-8"?>
<svg version="1.1" viewBox="0 0 2048 373" width="1280" height="1280" xmlns="http://www.w3.org/2000/svg">
<path transform="translate(0)" d="m0 0h2048v373h-2048z" fill="#FEFEFE"/>
<path transform="translate(172,38)" d="m0 0h32l16 3 17 5 12 4 2 2 10 4 10 6 11 8 10 9 2 1v2h2l9 11 10 15 8 17 5 15 3 13 1 20-1 16-5 17-6 12-10 13-14 14-14 9-15 6-14 3h-27l-12-4-9-6-7-6-6-10-3-9v-14l5-13 6-8 8-7 8-4 7-2 18-1 10-3 2-3v-5l-8-13-11-12-10-8-11-7-11-5-17-5-15-3h-34l-21 5-14 6-15 9-16 13-11 12-12 17-4 3-5-1-2-3v-10l3-14 6-20 8-18 10-17 11-13 6-7 11-9 10-7 14-8 12-5 20-6 15-3z" fill="#3B5A2C"/>
<path transform="translate(994,122)" d="m0 0h10l21 3 14 5 12 7 10 9 7 9 7 14 4 14 2 18-1 20-4 18-6 14-8 11-9 9-15 8-11 3-7 1h-13l-18-3-8-3-1 58h-44l-1-2v-156l1-48 15-4 27-4z" fill="#020200"/>
<path transform="translate(632,122)" d="m0 0h25l16 4 16 8 12 11 6 7 8 15 5 17 1 7v26l-3 15-5 14-6 10-9 10-8 7-15 8-14 4-7 1h-18l-16-3-14-6-11-8-6-5-9-12-7-15-4-15-1-8v-21l3-16 5-14 9-14 8-9 13-9 13-6z" fill="#010100"/>
<path transform="translate(812,122)" d="m0 0h25l16 4 16 8 10 9 8 9 6 10 6 17 2 11v28l-4 18-7 16-8 10-9 9-10 6-11 5-11 3-7 1h-18l-12-2-16-6-11-7-12-12-7-11-6-14-3-13-1-8v-20l3-16 5-13 6-11 10-12 12-9 15-7z" fill="#010100"/>
<path transform="translate(1170,122)" d="m0 0h25l16 4 14 7 12 11 9 14 5 15 2 10 1 10v19l-1 6h-100l3 10 5 8 9 6 10 4 7 1h19l19-3 11-3h3l6 35-9 4-18 4-18 2h-21l-18-3-15-6-11-7-10-9-7-10-6-13-4-17-1-9v-14l2-15 4-14 7-14 8-10 9-9 14-8 10-4z" fill="#010100"/>
<path transform="translate(484,71)" d="m0 0 18 1 21 4 17 6 9 5-3 11-9 25-3 1-19-7-14-3h-27l-16 5-11 8-8 10-6 14-3 15v24l3 17 5 12 8 11 8 6 10 5 14 3h19l20-3 16-5 7-2 12 35-1 3-17 7-19 5-16 2h-24l-18-2-19-5-16-8-9-7-7-6-10-13-8-17-5-18-2-15v-31l4-21 6-16 8-14 8-10 8-8 13-9 14-7 16-5 12-2z" fill="#010100"/>
<path transform="translate(148,129)" d="m0 0h14l20 3 15 5 12 7 12 11v4l-5 1h-30l-21 6-14 7h-3l-1 3-8 6-9 10-8 13-7 15-5 19v13l4 17 7 16 8 12 11 12 8 8 5 4 4 7-1 5-1 1h-8l-7-3-16-8-16-9-12-9-10-9-8-7-11-14-7-12-5-14-3-17v-9l2-8 1-10 3-8 5-12 8-14 3-4h2l2-4 7-8 13-10 15-8 16-5z" fill="#C1CB3C"/>
<path transform="translate(188,169)" d="m0 0 6 1 5 5-1 4-4 6-8 7-5 7-2 5-2 8-1 3v13l3 12 5 10 9 12 13 9 11 4 1 1 14 2 22-2 4-2 7-1 9-4 10-4 20-11 2-2h5l4 3v8l-4 10h-2l1 3-5 7-1 3h-2l-2 5-17 17-10 7-16 8-10 4-9 2-2 1h-27l-3-2-9-2-17-6-18-10-10-8v-2l-3-1-9-12-8-16-4-11-2-6v-24l3-4 2-6 3-7 7-12 11-12 11-9 9-5 7-3z" fill="#FF8C03"/>
<path transform="translate(1916,128)" d="m0 0 4 1 6 28 8 30 11 35 10 28 3 8 2-3 8-20 15-46 11-41 4-17 1-2h19l-4 18-9 33-16 49-15 38-6 14-1 1h-18l-6-13-13-35-12-36-8-29-10 35-12 36-14 37-3 5h-18l-6-12-12-30-10-28-10-31-11-41-2-11h21l7 30 10 35 12 36 8 21 3 7 7-18 16-49 11-41 5-21z" fill="#020301"/>
<path transform="translate(1699,143)" d="m0 0h20l11 4 9 6 9 10 7 15 3 15v24l-3 15-5 12-8 11-9 7-9 4-9 2h-13l-12-3-10-6-9-9-8-16-3-12-1-8v-18l3-16 5-13 9-12 9-7 9-4z" fill="#FEFEFE"/>
<path transform="translate(1335,123)" d="m0 0h29l18 3 7 2-1 10-5 25-1 2-26-4h-9l-14 2-1 119h-44v-148l15-5 23-5z" fill="#010000"/>
<path transform="translate(1700,125)" d="m0 0h17l16 4 14 7 10 9 7 8 6 10 5 13 3 13 1 11v11l-2 16-5 16-8 15-10 11-13 9-12 5-9 2h-23l-12-3-14-7-13-11-9-13-5-11-4-14-1-7v-28l4-18 8-17 9-11 9-8 10-6 11-4zm-1 18-10 3-11 7-7 8-6 10-4 12-2 13v18l3 17 5 12 6 9 8 8 12 6 9 2h13l12-3 9-5 8-7 7-11 4-10 3-15v-24l-3-15-8-16-9-10-10-6-9-3z" fill="#020201"/>
<path transform="translate(1419,76)" d="m0 0h117v18h-97v72h86v18h-86v98h-20z" fill="#010100"/>
<path transform="translate(1586,52)" d="m0 0h5l1 198 2 9 5 5 10 3 5 2-2 13-1 2h-10l-11-3-9-6-6-9-2-5-1-6v-200z" fill="#010000"/>
<path transform="translate(818,160)" d="m0 0h14l9 4 5 5 4 5 4 9 2 9v22l-4 16-6 9-7 6-8 3h-13l-9-4-6-5-6-10-3-11-1-7v-15l3-15 6-11 8-7z" fill="#FEFEFE"/>
<path transform="translate(638,160)" d="m0 0h14l9 4 7 7 6 12 2 10v21l-3 13-6 11-8 7-9 3h-12l-9-4-7-6-6-12-3-14v-17l3-14 5-10 7-7z" fill="#FEFEFE"/>
<path transform="translate(988,160)" d="m0 0h18l12 4 7 6 6 10 3 9 1 5v24l-3 11-5 9-7 6-9 3h-16l-13-4-2-2v-80z" fill="#FEFEFE"/>
<path transform="translate(1177,158)" d="m0 0h11l9 3 8 7 4 8 2 7v5h-58l1-8 6-12 7-6z" fill="#FEFEFE"/>
</svg>
