<?xml version="1.0" encoding="UTF-8"?>
<svg version="1.1" xmlns="http://www.w3.org/2000/svg" width="2000" height="500">
<path d="M0 0 C2.05054023 0.77704185 4.10900706 1.52821718 6.17041016 2.27587891 C20.71029846 7.64842884 34.93422938 14.21131616 47.40478516 23.52587891 C49.0997471 24.86646894 49.0997471 24.86646894 51.11962891 25.80322266 C51.11962891 26.46322266 51.11962891 27.12322266 51.11962891 27.80322266 C51.69197266 28.07134766 52.26431641 28.33947266 52.85400391 28.61572266 C55.19847525 29.84454902 57.24367828 31.22844442 59.36962891 32.80322266 C60.42923828 33.57666016 60.42923828 33.57666016 61.51025391 34.36572266 C62.04134766 34.84009766 62.57244141 35.31447266 63.11962891 35.80322266 C63.11962891 36.46322266 63.11962891 37.12322266 63.11962891 37.80322266 C63.66103516 38.01076172 64.20244141 38.21830078 64.76025391 38.43212891 C68.02965709 40.33206354 70.35743027 42.96471128 72.86962891 45.74072266 C73.40330078 46.32772949 73.93697266 46.91473633 74.48681641 47.51953125 C79.11711789 52.68248517 83.27015714 58.029015 87.11962891 63.80322266 C87.80025391 64.82029297 87.80025391 64.82029297 88.49462891 65.85791016 C95.72706303 76.74423028 102.07333631 87.73732933 107.11962891 99.80322266 C107.58884766 100.92470703 108.05806641 102.04619141 108.54150391 103.20166016 C109.88642836 106.69680332 111.05306239 110.21592153 112.11962891 113.80322266 C112.33748047 114.51849121 112.55533203 115.23375977 112.77978516 115.97070312 C116.53083284 128.74837913 117.84629109 141.5709137 118.68212891 154.80322266 C118.73863617 155.60093079 118.79514343 156.39863892 118.85336304 157.22052002 C119.00994964 159.51828709 119.13454811 161.81548999 119.24853516 164.11572266 C119.29702606 164.80242035 119.34551697 165.48911804 119.39547729 166.19662476 C119.58653947 171.28234534 118.37693919 173.95343316 115.11962891 177.80322266 C112.14713293 178.55416697 112.14713293 178.55416697 108.59748173 178.55547619 C107.61270471 178.56810776 107.61270471 178.56810776 106.60803321 178.58099452 C104.39792381 178.60196703 102.19031343 178.58001885 99.98023987 178.55839539 C98.38404145 178.56459009 96.7878514 178.57340487 95.19168037 178.58462077 C90.79769161 178.60779307 86.40449752 178.59338035 82.01052463 178.57291162 C77.27489491 178.55731717 72.5393876 178.57618866 67.80377197 178.5907135 C58.52339961 178.61357577 49.24332785 178.60403929 39.96296138 178.58321264 C32.42207733 178.56694773 24.88127547 178.56272438 17.3403759 178.56717873 C16.26829667 178.5678094 15.19621745 178.56844008 14.09165097 178.56908986 C11.91392674 178.57043588 9.73620254 178.57181545 7.55847835 178.57322822 C-12.87710047 178.58517408 -33.31251428 178.56107606 -53.74805553 178.52421013 C-71.29164955 178.49332029 -88.83505347 178.4909429 -106.37866211 178.51000977 C-126.73809395 178.53211138 -147.09741916 178.53827523 -167.45685631 178.51768714 C-169.62700497 178.51552415 -171.79715364 178.51337505 -173.96730232 178.51124001 C-175.03512948 178.51017364 -176.10295665 178.50910727 -177.20314221 178.5080086 C-184.73650102 178.50153284 -192.26980506 178.5063119 -199.80315971 178.51526451 C-208.98173666 178.52578971 -218.16009053 178.5183329 -227.3386262 178.48780873 C-232.02382894 178.47265798 -236.70867925 178.46554496 -241.39389229 178.47999954 C-245.68045067 178.49298604 -249.96630985 178.48299908 -254.25278712 178.45444081 C-255.80589823 178.44814551 -257.35907089 178.45033001 -258.91215306 178.46171125 C-261.01973954 178.47589592 -263.12493888 178.45945769 -265.23238277 178.43522167 C-266.40393002 178.43386784 -267.57547727 178.432514 -268.78252596 178.43111914 C-272.80725544 177.61535419 -274.29552676 175.91599066 -276.88037109 172.80322266 C-278.33185012 169.9002646 -278.25276135 168.03060486 -277.88037109 164.80322266 C-275.82733485 161.37092654 -273.75171385 159.09367024 -269.88037109 157.80322266 C-267.23294158 157.73013972 -264.6127117 157.71132254 -261.96630859 157.74072266 C-261.19606354 157.74450928 -260.42581848 157.7482959 -259.63223267 157.75219727 C-257.17322202 157.76441301 -254.71432859 157.78305152 -252.25537109 157.80322266 C-249.01318697 157.82970491 -245.77105953 157.84974365 -242.52880859 157.86572266 C-241.77779877 157.874021 -241.02678894 157.88231934 -240.25302124 157.89086914 C-238.46192004 157.89943163 -236.67069885 157.8565459 -234.88037109 157.80322266 C-233.34015791 156.26300947 -233.68255564 154.76252103 -233.59912109 152.61962891 C-233.56173828 151.77464844 -233.52435547 150.92966797 -233.48583984 150.05908203 C-233.45103516 149.17027344 -233.41623047 148.28146484 -233.38037109 147.36572266 C-233.31158833 145.61685726 -233.23885926 143.86814128 -233.16162109 142.11962891 C-233.13132812 141.34047119 -233.10103516 140.56131348 -233.06982422 139.75854492 C-232.88037109 137.80322266 -232.88037109 137.80322266 -231.88037109 135.80322266 C-233.05974998 135.81321541 -233.05974998 135.81321541 -234.26295471 135.82341003 C-241.69240836 135.88365727 -249.12174264 135.92926592 -256.5513773 135.95865917 C-260.37053966 135.97427884 -264.18949924 135.99544879 -268.00854492 136.02954102 C-271.69791072 136.06226745 -275.38708214 136.08010347 -279.07658195 136.08785439 C-280.48032628 136.09337418 -281.88406063 136.10415287 -283.28772163 136.12041283 C-299.28213436 136.29823129 -299.28213436 136.29823129 -304.78662109 130.95166016 C-306.91400185 126.77287652 -306.59717888 122.34738945 -305.88037109 117.80322266 C-304.00154771 114.15355425 -301.28021631 112.06978614 -297.88037109 109.80322266 C-294.74824524 109.56271362 -294.74824524 109.56271362 -290.83862305 109.57617188 C-290.12617432 109.57587982 -289.41372559 109.57558777 -288.6796875 109.57528687 C-286.32588503 109.57667969 -283.97239949 109.59223846 -281.61865234 109.60791016 C-279.98626376 109.61164046 -278.35387294 109.61448735 -276.72148132 109.6164856 C-272.42570816 109.62412071 -268.1300703 109.64376814 -263.83435059 109.66589355 C-259.45062083 109.68635461 -255.06686921 109.69548787 -250.68310547 109.70556641 C-242.08213193 109.72701417 -233.48126834 109.76114862 -224.88037109 109.80322266 C-224.74155518 109.20912598 -224.60273926 108.6150293 -224.4597168 108.00292969 C-222.76699689 101.57587263 -219.33275706 95.73726208 -216.19287109 89.92822266 C-215.37462731 88.41098303 -214.55812013 86.89280511 -213.74365234 85.37353516 C-213.3856958 84.71111816 -213.02773926 84.04870117 -212.65893555 83.36621094 C-211.80605928 81.94506741 -211.80605928 81.94506741 -211.88037109 80.80322266 C-212.72815376 80.79442329 -212.72815376 80.79442329 -213.59306335 80.78544617 C-219.48204799 80.72145194 -225.3704892 80.63701681 -231.2590332 80.54077148 C-233.45590037 80.50754211 -235.6528525 80.479504 -237.84985352 80.45678711 C-241.01013352 80.42320512 -244.1696363 80.37088631 -247.32958984 80.31494141 C-248.30997726 80.30855148 -249.29036469 80.30216156 -250.30046082 80.295578 C-259.0629862 80.107167 -259.0629862 80.107167 -262.88037109 76.80322266 C-262.88037109 76.14322266 -262.88037109 75.48322266 -262.88037109 74.80322266 C-263.54037109 74.80322266 -264.20037109 74.80322266 -264.88037109 74.80322266 C-267.90413915 68.40679022 -268.16094548 64.50588641 -265.88037109 57.80322266 C-265.55037109 57.14322266 -265.22037109 56.48322266 -264.88037109 55.80322266 C-264.22037109 55.80322266 -263.56037109 55.80322266 -262.88037109 55.80322266 C-262.88037109 55.14322266 -262.88037109 54.48322266 -262.88037109 53.80322266 C-257.98177688 51.44060767 -254.46374526 50.43129426 -248.93530273 50.46264648 C-248.28079132 50.4622084 -247.62627991 50.46177032 -246.95193481 50.46131897 C-244.81448256 50.46338891 -242.67784048 50.48663253 -240.54052734 50.51025391 C-239.0483798 50.5158563 -237.55622671 50.52012336 -236.06407166 50.52311707 C-232.15624482 50.53451532 -228.24875793 50.56393843 -224.34106445 50.597229 C-220.34574989 50.62803885 -216.35037985 50.64164561 -212.35498047 50.65673828 C-204.5299565 50.68881367 -196.70521162 50.73994824 -188.88037109 50.80322266 C-188.42773643 49.86359428 -188.42773643 49.86359428 -187.96595764 48.90498352 C-186.8402698 46.72558414 -185.66339809 45.32812335 -183.93896484 43.59619141 C-183.35977295 43.01289063 -182.78058105 42.42958984 -182.18383789 41.82861328 C-181.56806885 41.22210938 -180.9522998 40.61560547 -180.31787109 39.99072266 C-179.68598877 39.36488281 -179.05410645 38.73904297 -178.40307617 38.09423828 C-173.82322122 33.61080748 -169.14551036 29.47316173 -163.88037109 25.80322266 C-162.65447266 24.93890625 -162.65447266 24.93890625 -161.40380859 24.05712891 C-155.21452236 19.80322266 -155.21452236 19.80322266 -152.88037109 19.80322266 C-152.88037109 19.14322266 -152.88037109 18.48322266 -152.88037109 17.80322266 C-151.80722656 17.27535156 -151.80722656 17.27535156 -150.71240234 16.73681641 C-145.23450996 14.02267309 -139.83768277 11.23153954 -134.50537109 8.24072266 C-124.20720202 2.66716162 -113.26946336 -0.66732417 -101.88037109 -3.19677734 C-100.80215088 -3.44258545 -100.80215088 -3.44258545 -99.70214844 -3.69335938 C-97.26381287 -4.24686506 -94.82271004 -4.78622948 -92.38037109 -5.32177734 C-91.24208862 -5.57809937 -91.24208862 -5.57809937 -90.08081055 -5.83959961 C-61.78957044 -11.88200877 -27.12622213 -10.3238277 0 0 Z " fill="#FD3030" transform="translate(350.88037109375,152.19677734375)"/>
<path d="M0 0 C2.06974597 1.39553207 2.06974597 1.39553207 4.2265625 2.3828125 C7.04657542 3.84805633 8.95292679 6.07856681 11.12109375 8.3671875 C11.10949219 7.52414063 11.09789062 6.68109375 11.0859375 5.8125 C11.07691406 4.71679688 11.06789063 3.62109375 11.05859375 2.4921875 C11.04699219 1.40164062 11.03539062 0.31109375 11.0234375 -0.8125 C11.12109375 -3.6328125 11.12109375 -3.6328125 12.12109375 -5.6328125 C17.06899552 -5.6821776 22.01675458 -5.71851519 26.96484375 -5.74267578 C28.64878841 -5.75274567 30.33271554 -5.76640238 32.01660156 -5.78369141 C34.43428876 -5.80789676 36.85174518 -5.81928546 39.26953125 -5.828125 C40.02479095 -5.83844757 40.78005066 -5.84877014 41.55819702 -5.85940552 C43.41403355 -5.85980568 45.26928655 -5.75503966 47.12109375 -5.6328125 C49.74483668 -3.00906957 49.37230887 -1.88162822 49.37506104 1.77700806 C49.38352051 3.50079933 49.38352051 3.50079933 49.39215088 5.25941467 C49.38607819 7.16055275 49.38607819 7.16055275 49.37988281 9.10009766 C49.38259213 10.44387502 49.38615273 11.7876509 49.39050293 13.13142395 C49.39964853 16.79139079 49.39607057 20.45124527 49.38974476 24.11121416 C49.38468139 27.95145502 49.3893785 31.79168625 49.39251709 35.63192749 C49.39616189 42.09675822 49.39135061 48.56154337 49.38183594 55.02636719 C49.37101474 62.46400773 49.37442838 69.90153808 49.38548875 77.33917582 C49.39462437 83.74197051 49.39581458 90.14473237 49.39061141 96.54753149 C49.38751761 100.36317387 49.38700875 104.1787649 49.39368439 107.99440384 C49.45868246 151.29478493 49.45868246 151.29478493 39.12109375 171.3671875 C38.46109375 171.3671875 37.80109375 171.3671875 37.12109375 171.3671875 C37.01474609 172.19089844 37.01474609 172.19089844 36.90625 173.03125 C33.70541265 182.55413924 21.92589828 190.45201825 13.43359375 194.9921875 C7.55407298 197.8223916 1.37857878 199.57682713 -4.87890625 201.3671875 C-5.86890625 201.6971875 -6.85890625 202.0271875 -7.87890625 202.3671875 C-31.62500385 206.06609886 -58.68023976 203.59361382 -78.67578125 189.37890625 C-81.14383734 187.44024089 -83.52482792 185.44204121 -85.87890625 183.3671875 C-86.75289062 182.63435547 -86.75289062 182.63435547 -87.64453125 181.88671875 C-89.06640625 180.6171875 -89.06640625 180.6171875 -90.87890625 178.3671875 C-90.69140625 176.0546875 -90.69140625 176.0546875 -89.87890625 174.3671875 C-89.21890625 174.3671875 -88.55890625 174.3671875 -87.87890625 174.3671875 C-87.68296875 173.83351563 -87.48703125 173.29984375 -87.28515625 172.75 C-85.23556554 169.2770824 -82.37065636 166.90945278 -79.37890625 164.2421875 C-78.20164023 163.17728526 -77.0245495 162.1121892 -75.84765625 161.046875 C-74.86796875 160.16257812 -73.88828125 159.27828125 -72.87890625 158.3671875 C-71.88890625 157.3771875 -71.88890625 157.3771875 -70.87890625 156.3671875 C-65.87408975 156.98810727 -62.1733095 160.64765003 -58.27539062 163.59765625 C-47.36265291 171.66617988 -35.25961042 173.38681912 -21.87890625 172.3671875 C-18.67889283 171.71187832 -15.85156969 170.70632909 -12.87890625 169.3671875 C-11.86763672 168.94953125 -11.86763672 168.94953125 -10.8359375 168.5234375 C-1.97655688 164.54785471 4.36139059 158.34384311 8.12109375 149.3671875 C10.1618451 143.52918095 10.53470961 138.04661598 10.74609375 131.9296875 C10.78476563 131.00736328 10.8234375 130.08503906 10.86328125 129.13476562 C10.95678051 126.87909607 11.04253285 124.62341834 11.12109375 122.3671875 C6.19241173 125.60935886 1.44459034 129.04582449 -3.29296875 132.5625 C-14.93073366 140.68432385 -32.30010693 140.50722142 -45.87890625 138.3671875 C-49.62670199 137.57627337 -53.237904 136.55212906 -56.87890625 135.3671875 C-58.09320312 135.00367188 -58.09320312 135.00367188 -59.33203125 134.6328125 C-72.6832523 130.06755627 -84.74568384 118.83182929 -91.12890625 106.4296875 C-92.06313706 104.41691381 -92.98091172 102.39638709 -93.87890625 100.3671875 C-94.25917969 99.56667969 -94.63945313 98.76617187 -95.03125 97.94140625 C-103.66070715 78.56583266 -103.44099651 53.8033322 -96.06640625 34.1171875 C-92.56035357 26.07467734 -88.36930805 18.23018975 -82.87890625 11.3671875 C-82.21890625 11.3671875 -81.55890625 11.3671875 -80.87890625 11.3671875 C-80.54890625 10.3771875 -80.21890625 9.3871875 -79.87890625 8.3671875 C-79.21890625 8.3671875 -78.55890625 8.3671875 -77.87890625 8.3671875 C-77.87890625 7.7071875 -77.87890625 7.0471875 -77.87890625 6.3671875 C-56.87617225 -12.0355949 -23.57719213 -15.34704243 0 0 Z M-40.87890625 28.3671875 C-41.49507812 28.72554688 -42.11125 29.08390625 -42.74609375 29.453125 C-44.61572127 30.5579623 -44.61572127 30.5579623 -46.87890625 32.3671875 C-46.87890625 33.0271875 -46.87890625 33.6871875 -46.87890625 34.3671875 C-47.86890625 34.6971875 -48.85890625 35.0271875 -49.87890625 35.3671875 C-56.81380118 44.03580617 -60.60441074 55.35074369 -59.62890625 66.4296875 C-59.39968152 68.07854267 -59.14962798 69.72463549 -58.87890625 71.3671875 C-58.76546875 72.19089844 -58.65203125 73.01460937 -58.53515625 73.86328125 C-57.29213771 81.52457822 -54.16422126 87.93921499 -49.87890625 94.3671875 C-49.21890625 94.3671875 -48.55890625 94.3671875 -47.87890625 94.3671875 C-47.54890625 95.3571875 -47.21890625 96.3471875 -46.87890625 97.3671875 C-46.21890625 97.3671875 -45.55890625 97.3671875 -44.87890625 97.3671875 C-44.54890625 98.3571875 -44.21890625 99.3471875 -43.87890625 100.3671875 C-37.28581725 106.21007819 -28.5119106 106.91048272 -20.04296875 106.6328125 C-9.27148339 105.72853966 -3.17962586 101.30377624 4.12109375 93.3671875 C10.88308133 84.56441988 12.30009705 75.79697296 12.30859375 64.9296875 C12.32083984 64.10919922 12.33308594 63.28871094 12.34570312 62.44335938 C12.37179636 51.54508348 8.62546666 41.37810558 1.12109375 33.3671875 C-1.55038361 31.82267555 -1.55038361 31.82267555 -3.87890625 31.3671875 C-3.87890625 30.7071875 -3.87890625 30.0471875 -3.87890625 29.3671875 C-14.9814008 22.65293594 -29.57073897 21.17108105 -40.87890625 28.3671875 Z " fill="#1F1F1F" transform="translate(1124.87890625,240.6328125)"/>
<path d="M0 0 C0.82290527 0.00202423 1.64581055 0.00404846 2.49365234 0.00613403 C3.33331543 0.00517731 4.17297852 0.00422058 5.03808594 0.00323486 C6.81689529 0.00255306 8.59570712 0.00440737 10.37451172 0.00857544 C13.10699011 0.01392371 15.83930411 0.00863048 18.57177734 0.00222778 C20.29573604 0.00288856 22.01969464 0.00416973 23.74365234 0.00613403 C24.56655762 0.0041098 25.38946289 0.00208557 26.23730469 0 C32.0037018 0.02399599 32.0037018 0.02399599 33.11865234 1.13894653 C33.20832976 3.5677581 33.23363596 5.96788807 33.21630859 8.39675903 C33.21484833 9.15607727 33.21338806 9.91539551 33.21188354 10.69772339 C33.20806869 12.35161993 33.2019429 14.00551233 33.19381714 15.65939331 C33.18111056 18.27254044 33.17455272 20.88563713 33.16967773 23.49880981 C33.15626955 29.98947746 33.13205877 36.48009725 33.10827637 42.97073364 C33.08860258 48.45142338 33.07293813 53.93209552 33.06271362 59.41281128 C33.0562004 61.99489479 33.0436919 64.57690654 33.03100586 67.15896606 C33.02737516 68.7330214 33.02402321 70.30707742 33.02099609 71.88113403 C33.01324661 72.96742096 33.01324661 72.96742096 33.00534058 74.07565308 C33.00515922 75.76384013 33.05636296 77.45190901 33.11865234 79.13894653 C34.85006728 80.87036147 37.07615279 80.25872232 39.38343811 80.2633667 C40.13725266 80.25977142 40.8910672 80.25617615 41.66772461 80.25247192 C42.45790985 80.25261795 43.24809509 80.25276398 44.06222534 80.25291443 C46.68653056 80.2522151 49.3107657 80.2444218 51.93505859 80.23660278 C53.749669 80.23473867 55.5642799 80.23331474 57.37889099 80.23231506 C62.16455464 80.22848933 66.95018814 80.21865857 71.73583984 80.20761108 C77.47268806 80.19560384 83.20954633 80.19099499 88.9464035 80.18515778 C97.67050745 80.17544684 106.39454518 80.15629068 115.11865234 80.13894653 C115.44865234 53.73894653 115.77865234 27.33894653 116.11865234 0.13894653 C128.65865234 0.13894653 141.19865234 0.13894653 154.11865234 0.13894653 C156.09974597 2.12004016 155.28203341 6.04497331 155.29032898 8.75585938 C155.29985264 9.96678102 155.29985264 9.96678102 155.3095687 11.20216572 C155.32973393 13.92831556 155.34270487 16.65445303 155.35571289 19.38064575 C155.36855704 21.3266425 155.38181115 23.27263657 155.39544678 25.21862793 C155.43115021 30.52023222 155.4603331 35.82185358 155.48783851 41.12350607 C155.5053098 44.43202656 155.52419029 47.74053585 155.54358864 51.04904556 C155.61119602 62.5807799 155.67361228 74.112529 155.73120117 85.64431763 C155.78509942 96.41035616 155.85019392 107.1762876 155.92053956 117.94223011 C155.9803564 127.17106165 156.03244291 136.39991567 156.07846671 145.62882626 C156.10611553 151.14710238 156.13693036 156.66531724 156.1754818 162.1835289 C156.21146126 167.37247982 156.23785143 172.56139071 156.25675964 177.75043106 C156.26535873 179.65845881 156.27742294 181.56647445 156.29314613 183.47445679 C156.31402224 186.07238531 156.32257568 188.67006641 156.32792664 191.26806641 C156.33696115 192.02905352 156.34599566 192.79004064 156.35530394 193.57408798 C156.34929076 197.32123985 156.25349628 198.93668063 154.11865234 202.13894653 C141.57865234 202.13894653 129.03865234 202.13894653 116.11865234 202.13894653 C115.78865234 175.07894653 115.45865234 148.01894653 115.11865234 120.13894653 C111.18746824 119.15615051 107.70940225 118.99788063 103.70385742 119.009552 C102.59348366 119.00692352 102.59348366 119.00692352 101.4606781 119.00424194 C99.01982259 118.99984902 96.57903981 119.0027515 94.13818359 119.00613403 C92.44235724 119.00546047 90.74653098 119.00449001 89.05070496 119.00323486 C85.50083495 119.00176154 81.95099013 119.00390152 78.40112305 119.00857544 C73.84107629 119.01428557 69.28108822 119.01098332 64.72104359 119.00500298 C61.22189385 119.00139862 57.72275816 119.00253514 54.22360802 119.00513077 C52.5414091 119.00579971 50.85920893 119.00497275 49.17701149 119.00265121 C46.83306087 119.00012534 44.48920704 119.00396373 42.14526367 119.009552 C41.444487 119.00752777 40.74371033 119.00550354 40.021698 119.00341797 C36.79086473 118.74389065 36.79086473 118.74389065 34.11865234 120.13894653 C33.99898174 122.62250932 33.94322559 125.07953798 33.92919922 127.56448364 C33.92090591 128.34170273 33.91261261 129.11892181 33.90406799 129.91969299 C33.88662902 131.61284758 33.87147283 133.30602681 33.85829163 134.99921989 C33.83732858 137.67570801 33.81030049 140.3520724 33.78161621 143.02848816 C33.72181345 148.71109381 33.66971416 154.39375651 33.61865234 160.07644653 C33.55949601 166.6555448 33.49723336 173.23458227 33.42677307 179.81357002 C33.40013272 182.45593968 33.37935643 185.09831518 33.35876465 187.74073792 C33.34216494 189.35516655 33.32529339 190.96959242 33.30810547 192.58401489 C33.30392105 193.32331238 33.29973663 194.06260986 33.29542542 194.8243103 C33.23249316 199.91126491 33.23249316 199.91126491 32.11865234 202.13894653 C26.72518246 202.16359503 21.33174509 202.18178184 15.93823242 202.19387817 C14.1019636 202.19891885 12.2656988 202.2057513 10.42944336 202.21438599 C7.79588833 202.22646326 5.16238618 202.23217734 2.52880859 202.23660278 C1.2897451 202.24434471 1.2897451 202.24434471 0.02565002 202.25224304 C-1.94371133 202.25243858 -3.91296379 202.20098805 -5.88134766 202.13894653 C-7.6289128 200.39138139 -7.00639096 198.10878756 -7.01509106 195.77990437 C-7.01174498 194.61801232 -7.01174498 194.61801232 -7.0083313 193.43264771 C-7.00989129 192.61578837 -7.01145128 191.79892904 -7.01305854 190.9573164 C-7.01707197 188.19883143 -7.01387758 185.44040074 -7.01074219 182.68191528 C-7.01209608 180.71297168 -7.01387594 178.74402832 -7.01605225 176.77508545 C-7.02062805 171.41160593 -7.01883642 166.04814555 -7.01567316 160.68466568 C-7.01315032 155.08503414 -7.01548688 149.4854043 -7.01705933 143.88577271 C-7.01888124 134.48025212 -7.01647413 125.07473937 -7.01171875 115.66921997 C-7.00627609 104.77823477 -7.00803873 93.88726828 -7.01354516 82.99628353 C-7.01807566 73.66383929 -7.01872714 64.33140071 -7.01610649 54.99895573 C-7.01454336 49.41706599 -7.01435091 43.83518507 -7.01764297 38.2532959 C-7.02052078 33.00687148 -7.01854768 27.76047131 -7.01274872 22.51404953 C-7.01142063 20.58262548 -7.01181606 18.65119941 -7.01401138 16.71977615 C-7.01672098 14.09490451 -7.01334412 11.47011189 -7.0083313 8.84524536 C-7.01056202 8.07065066 -7.01279274 7.29605597 -7.01509106 6.4979887 C-6.99068927 -0.03399178 -6.48662888 0.02699312 0 0 Z " fill="#1F1F1F" transform="translate(550.88134765625,176.86105346679688)"/>
<path d="M0 0 C0.74709229 -0.0033284 1.49418457 -0.0066568 2.26391602 -0.01008606 C3.84423201 -0.01515091 5.42455871 -0.01749452 7.00488281 -0.01733398 C9.42791243 -0.01952259 11.85048836 -0.03768826 14.2734375 -0.05664062 C15.8072901 -0.05957417 17.34114488 -0.06155923 18.875 -0.0625 C19.60211182 -0.06968552 20.32922363 -0.07687103 21.07836914 -0.08427429 C26.20867197 -0.06085928 26.20867197 -0.06085928 28.4375 2.16796875 C28.64730587 4.8162622 28.73138598 7.36176846 28.72943115 10.01229858 C28.73663469 10.83197919 28.74383822 11.65165981 28.75126004 12.49617922 C28.773046 15.25838143 28.78051908 18.02043969 28.78808594 20.78271484 C28.80065103 22.7567956 28.8140631 24.73087112 28.82826233 26.7049408 C28.86422578 32.07886456 28.8875277 37.45277577 28.9080801 42.82677794 C28.93110395 48.44238114 28.96378581 54.05792954 28.99493408 59.67349243 C29.04563109 69.1074997 29.0878957 78.541518 29.12548828 87.97558594 C29.16910797 98.88990169 29.22716695 109.80407021 29.29273582 120.71827447 C29.34858136 130.07792969 29.39657013 139.43760121 29.4379847 148.79733145 C29.46275262 154.39218758 29.49027926 159.98699389 29.52489471 165.58179855 C29.55701279 170.84300134 29.57928491 176.10415502 29.59390068 181.36543465 C29.60089204 183.29884091 29.61133826 185.23223816 29.62545204 187.16560555 C29.64412878 189.80036016 29.65041782 192.43485939 29.65350342 195.06967163 C29.66185581 195.83873663 29.6702082 196.60780164 29.6788137 197.40017164 C29.66963265 201.14708217 29.53642433 203.98956806 27.4375 207.16796875 C22.63201403 207.21733758 17.82667506 207.25367318 13.02099609 207.27783203 C11.38555328 207.28790129 9.75012851 207.30155756 8.11474609 207.31884766 C5.7665563 207.3430558 3.41860412 207.35444232 1.0703125 207.36328125 C0.33692657 207.37360382 -0.39645935 207.38392639 -1.15206909 207.39456177 C-2.95712697 207.39496243 -4.7615783 207.2900963 -6.5625 207.16796875 C-8.5625 205.16796875 -8.5625 205.16796875 -8.7578125 201.69140625 C-8.74451493 200.30845907 -8.72066232 198.92558221 -8.6875 197.54296875 C-8.67847656 196.8365625 -8.66945313 196.13015625 -8.66015625 195.40234375 C-8.63657603 193.65740777 -8.60070461 191.9126458 -8.5625 190.16796875 C-9.2225 190.16796875 -9.8825 190.16796875 -10.5625 190.16796875 C-10.5625 190.82796875 -10.5625 191.48796875 -10.5625 192.16796875 C-11.2225 192.16796875 -11.8825 192.16796875 -12.5625 192.16796875 C-12.81 192.74546875 -13.0575 193.32296875 -13.3125 193.91796875 C-18.31861832 202.92898172 -30.21438228 206.40918242 -39.5625 209.16796875 C-40.5525 209.49796875 -41.5425 209.82796875 -42.5625 210.16796875 C-58.51892089 211.34438048 -71.43867715 209.79634366 -85.5625 202.16796875 C-86.89355027 201.49675537 -88.22613646 200.82854025 -89.5625 200.16796875 C-89.5625 199.50796875 -89.5625 198.84796875 -89.5625 198.16796875 C-90.8825 197.83796875 -92.2025 197.50796875 -93.5625 197.16796875 C-93.5625 196.50796875 -93.5625 195.84796875 -93.5625 195.16796875 C-94.42101563 194.8121875 -94.42101563 194.8121875 -95.296875 194.44921875 C-98.0504292 192.89203637 -99.73045634 191.04304078 -101.8125 188.66796875 C-102.51890625 187.87390625 -103.2253125 187.07984375 -103.953125 186.26171875 C-105.5625 184.16796875 -105.5625 184.16796875 -105.5625 182.16796875 C-106.2225 182.16796875 -106.8825 182.16796875 -107.5625 182.16796875 C-113.30272421 171.6906663 -117.13364056 161.85942777 -119.5625 150.16796875 C-119.82401855 149.2253418 -119.82401855 149.2253418 -120.09082031 148.26367188 C-123.08218974 134.97282552 -120.73536728 119.90390743 -116.5625 107.16796875 C-116.27375 106.18957031 -115.985 105.21117187 -115.6875 104.203125 C-112.58033118 94.53483629 -107.15939476 84.97225009 -99.5625 78.16796875 C-98.0775 77.67296875 -98.0775 77.67296875 -96.5625 77.16796875 C-96.5625 76.50796875 -96.5625 75.84796875 -96.5625 75.16796875 C-83.59770836 63.80810296 -70.05408279 59.8092336 -53.1875 59.85546875 C-51.43566406 59.83129883 -51.43566406 59.83129883 -49.6484375 59.80664062 C-33.86976766 59.79779608 -21.81967962 65.20989293 -10.5625 76.16796875 C-9.39368821 72.66153337 -9.44251573 69.91895407 -9.44897461 66.21801758 C-9.44882858 65.51532242 -9.44868256 64.81262726 -9.4485321 64.08863831 C-9.44922843 61.76739407 -9.45700774 59.44623021 -9.46484375 57.125 C-9.46670892 55.51503035 -9.46813236 53.90506014 -9.46913147 52.29508972 C-9.47294882 48.05854728 -9.48277245 43.82203915 -9.49383545 39.58551025 C-9.50406636 35.26208968 -9.50863269 30.93866356 -9.51367188 26.61523438 C-9.52439541 18.13279676 -9.54146247 9.65038702 -9.5625 1.16796875 C-6.51721781 -0.35467234 -3.34104754 0.00511338 0 0 Z M-58.5625 97.16796875 C-59.24828125 97.59207031 -59.9340625 98.01617187 -60.640625 98.453125 C-69.66473012 104.6356703 -75.28435367 113.24981193 -77.75 123.85546875 C-79.89320402 135.72413639 -78.76757701 147.28462592 -73.5625 158.16796875 C-72.9025 158.16796875 -72.2425 158.16796875 -71.5625 158.16796875 C-71.459375 158.74675781 -71.35625 159.32554687 -71.25 159.921875 C-69.44459174 165.82022584 -64.14197978 170.11000941 -58.9375 173.04296875 C-57.49688648 173.78667898 -56.03772253 174.49551749 -54.5625 175.16796875 C-53.78648438 175.5340625 -53.01046875 175.90015625 -52.2109375 176.27734375 C-45.45724435 178.5484972 -37.10004949 178.24201224 -30.5625 175.41796875 C-29.21261049 174.69819372 -27.87692921 173.95062681 -26.5625 173.16796875 C-25.53125 172.61109375 -24.5 172.05421875 -23.4375 171.48046875 C-15.09120638 164.76714562 -9.73594934 155.30645222 -8 144.74609375 C-7.68497163 141.20202461 -7.5625 137.72561375 -7.5625 134.16796875 C-7.5625 133.06066406 -7.5625 131.95335937 -7.5625 130.8125 C-7.91415507 121.61452214 -10.34301883 112.23556099 -16.5625 105.16796875 C-17.2225 105.16796875 -17.8825 105.16796875 -18.5625 105.16796875 C-18.80484375 104.57242188 -19.0471875 103.976875 -19.296875 103.36328125 C-20.80560151 100.74629268 -22.28988679 99.68180931 -24.8125 98.04296875 C-25.56015625 97.54539062 -26.3078125 97.0478125 -27.078125 96.53515625 C-36.8928961 91.13394574 -49.05080246 91.25080807 -58.5625 97.16796875 Z " fill="#1F1F1F" transform="translate(1475.5625,171.83203125)"/>
<path d="M0 0 C0.7322731 0.00202423 1.4645462 0.00404846 2.2190094 0.00613403 C2.96751663 0.00517731 3.71602386 0.00422058 4.48721313 0.00323486 C6.07351261 0.00255307 7.65981486 0.00440731 9.24610901 0.00857544 C11.67789474 0.01391629 14.10949513 0.00863434 16.54127502 0.00222778 C18.07968689 0.00288871 19.61809864 0.00417018 21.1565094 0.00613403 C21.88675827 0.0041098 22.61700714 0.00208557 23.36938477 0 C28.52425229 0.02398985 28.52425229 0.02398985 30.75416565 1.13894653 C30.75416565 25.22894653 30.75416565 49.31894653 30.75416565 74.13894653 C34.00387396 72.18912155 36.76610605 70.43631849 39.69166565 68.13894653 C52.64578349 58.35677156 68.17762011 58.89811577 83.75416565 60.13894653 C92.41425052 61.57735403 99.86445984 65.85733051 106.75416565 71.13894653 C108.11541565 72.09800903 108.11541565 72.09800903 109.50416565 73.07644653 C112.4160963 75.7457163 114.77274766 78.71573077 116.75416565 82.13894653 C116.75416565 82.79894653 116.75416565 83.45894653 116.75416565 84.13894653 C117.41416565 84.13894653 118.07416565 84.13894653 118.75416565 84.13894653 C123.15218107 92.33524801 124.0467829 98.88172765 123.98121643 108.03128052 C123.98150848 109.10519547 123.98180054 110.17911041 123.98210144 111.28556824 C123.98071327 114.8188091 123.96517601 118.35183646 123.94947815 121.88504028 C123.9457462 124.34126165 123.94290009 126.7974845 123.94090271 129.25370789 C123.93328059 135.70632058 123.91364421 142.15884268 123.89149475 148.61141968 C123.87100575 155.20066096 123.86189446 161.78991693 123.8518219 168.37918091 C123.83039705 181.29914891 123.79522639 194.219026 123.75416565 207.13894653 C112.20416565 207.13894653 100.65416565 207.13894653 88.75416565 207.13894653 C86.81165845 202.28267854 86.49675367 198.87091 86.57472229 193.80374146 C86.57924911 192.9770546 86.58377594 192.15036774 86.58843994 191.29862976 C86.59937497 189.50837734 86.61486326 187.71814818 86.63440132 185.92796898 C86.66463604 183.08992807 86.68139392 180.25209392 86.69445801 177.41392517 C86.73414641 169.34611443 86.79915193 161.27855323 86.87062073 153.21096802 C86.91345245 148.27097348 86.94147768 143.33106341 86.96092033 138.39092445 C86.97145446 136.5135106 86.98781423 134.63611968 87.0102253 132.75881004 C87.04159427 130.12654052 87.05422448 127.4947636 87.06300354 124.86233521 C87.07693146 124.09478912 87.09085938 123.32724304 87.10520935 122.53643799 C87.09323911 115.47863601 85.2548557 109.71122945 80.75416565 104.13894653 C80.75416565 103.47894653 80.75416565 102.81894653 80.75416565 102.13894653 C79.87848938 101.70860107 79.87848938 101.70860107 78.98512268 101.26956177 C77.61489608 100.57515168 76.25752995 99.85362966 74.92555237 99.08840942 C69.83372226 96.25347341 65.6715292 95.46407592 59.87916565 95.57644653 C58.69943176 95.58961914 58.69943176 95.58961914 57.49586487 95.60305786 C51.08558702 95.82722582 45.90201697 97.12058158 40.75416565 101.13894653 C38.31515437 103.76460744 38.31515437 103.76460744 36.75416565 106.13894653 C36.09416565 106.13894653 35.43416565 106.13894653 34.75416565 106.13894653 C34.42060146 107.47222213 34.08732161 108.80556887 33.75416565 110.13894653 C33.58107911 110.81446595 33.40799257 111.48998537 33.22966099 112.18597507 C31.93712707 117.53403712 31.45539558 122.53262923 31.45118713 128.02346802 C31.43852814 129.2788311 31.43852814 129.2788311 31.4256134 130.55955505 C31.40006827 133.29305663 31.38775394 136.02645084 31.3752594 138.76004028 C31.35906736 140.67053564 31.34188559 142.58102285 31.32376099 144.49150085 C31.27827697 149.49652343 31.24335692 154.5015571 31.21156311 159.50668335 C31.15948095 167.54187382 31.09463014 175.57694533 31.02334785 183.61198616 C31.00049699 186.41836083 30.98424493 189.22472013 30.96862793 192.03114319 C30.95522764 193.74082617 30.94161339 195.45050749 30.92774963 197.16018677 C30.92382957 198.3344371 30.92382957 198.3344371 30.91983032 199.53240967 C30.8678107 204.91165643 30.8678107 204.91165643 29.75416565 207.13894653 C17.87416565 207.13894653 5.99416565 207.13894653 -6.24583435 207.13894653 C-6.26895001 180.29715437 -6.28681186 153.45536459 -6.29764652 126.61356449 C-6.3028102 114.15139999 -6.30985426 101.68924177 -6.3212738 89.2270813 C-6.33121846 78.36932876 -6.33768725 67.51158076 -6.33992285 56.65382379 C-6.34123033 50.90088903 -6.34431852 45.1479673 -6.35156441 39.3950367 C-6.35832118 33.98693678 -6.36045202 28.57885531 -6.35894203 23.17075157 C-6.35921852 21.17966232 -6.36122566 19.18857249 -6.36503983 17.19748688 C-6.36997172 14.491554 -6.36883452 11.785692 -6.36608887 9.07975769 C-6.36900171 8.28113518 -6.37191455 7.48251268 -6.37491566 6.65968949 C-6.35767711 0.42962995 -6.2657447 0.02929602 0 0 Z " fill="#1F1F1F" transform="translate(1815.245834350586,171.86105346679688)"/>
<path d="M0 0 C2.04701345 0.01072501 4.09314969 0.00004629 6.14013672 -0.01269531 C25.75240506 -0.03584819 41.97160431 6.12304842 56.55029297 19.32324219 C57.11482178 19.82992432 57.67935059 20.33660645 58.26098633 20.85864258 C61.35303635 23.75369871 63.34975454 26.17140816 64.55029297 30.26074219 C65.21029297 30.26074219 65.87029297 30.26074219 66.55029297 30.26074219 C71.35274894 38.71352099 75.67577353 46.62035649 77.55029297 56.26074219 C77.75267578 57.22496094 77.95505859 58.18917969 78.16357422 59.18261719 C80.97941805 73.97058615 80.10546367 90.46439455 73.55029297 104.26074219 C73.03208984 105.36289062 72.51388672 106.46503906 71.97998047 107.60058594 C68.98971915 113.82692868 65.99530192 119.92673144 61.55029297 125.26074219 C60.89029297 125.26074219 60.23029297 125.26074219 59.55029297 125.26074219 C59.28216797 125.90011719 59.01404297 126.53949219 58.73779297 127.19824219 C57.55029297 129.26074219 57.55029297 129.26074219 54.55029297 130.26074219 C54.55029297 130.92074219 54.55029297 131.58074219 54.55029297 132.26074219 C52.68685839 133.78564774 50.84625368 135.15682686 48.86279297 136.51074219 C48.27771973 136.91115723 47.69264648 137.31157227 47.08984375 137.72412109 C33.14316617 147.02066213 19.39194577 150.79315473 2.79833984 150.65185547 C0.55358126 150.63576576 -1.68937767 150.65178414 -3.93408203 150.67089844 C-15.48018601 150.69002532 -25.27518745 148.84663787 -35.57470703 143.51074219 C-36.59818237 142.98903442 -36.59818237 142.98903442 -37.64233398 142.45678711 C-45.21745149 138.49135585 -51.63584816 133.54599502 -57.44970703 127.26074219 C-57.98853516 126.68066406 -58.52736328 126.10058594 -59.08251953 125.50292969 C-63.44970703 120.64824219 -63.44970703 120.64824219 -63.44970703 117.26074219 C-64.10970703 117.26074219 -64.76970703 117.26074219 -65.44970703 117.26074219 C-66.40880254 115.03190074 -67.3670054 112.8026825 -68.32470703 110.57324219 C-68.59412109 109.94740234 -68.86353516 109.3215625 -69.14111328 108.67675781 C-78.1240559 87.75307439 -78.53384746 66.53473223 -70.19970703 45.26074219 C-67.58400541 39.16273872 -64.17630473 33.73330253 -60.44970703 28.26074219 C-59.78970703 27.27074219 -59.12970703 26.28074219 -58.44970703 25.26074219 C-57.78970703 25.26074219 -57.12970703 25.26074219 -56.44970703 25.26074219 C-56.11970703 24.27074219 -55.78970703 23.28074219 -55.44970703 22.26074219 C-54.78970703 22.26074219 -54.12970703 22.26074219 -53.44970703 22.26074219 C-53.11970703 21.27074219 -52.78970703 20.28074219 -52.44970703 19.26074219 C-51.78970703 19.26074219 -51.12970703 19.26074219 -50.44970703 19.26074219 C-50.44970703 18.60074219 -50.44970703 17.94074219 -50.44970703 17.26074219 C-48.23359723 15.55022028 -46.03315992 13.98457025 -43.69970703 12.44824219 C-43.01884033 11.99900391 -42.33797363 11.54976562 -41.63647461 11.08691406 C-28.29714925 2.49437446 -15.70016537 -0.09772667 0 0 Z M-28.01220703 46.26074219 C-33.98991173 55.40197242 -35.90179753 63.67945247 -35.94970703 74.44824219 C-35.95591064 75.36226807 -35.96211426 76.27629395 -35.96850586 77.21801758 C-35.73601941 89.80971029 -31.19869832 99.82734717 -22.82470703 109.19824219 C-22.04095703 109.87886719 -21.25720703 110.55949219 -20.44970703 111.26074219 C-19.74845703 111.94136719 -19.04720703 112.62199219 -18.32470703 113.32324219 C-10.02347102 118.91755341 -1.30729553 120.29905775 8.55029297 119.26074219 C11.4989339 118.65085235 13.90950189 117.6957175 16.55029297 116.26074219 C17.27732422 115.87015625 18.00435547 115.47957031 18.75341797 115.07714844 C28.99609455 108.92805858 35.03505367 99.52479161 38.55029297 88.26074219 C39.20696215 85.23712363 39.47933084 82.35032405 39.55029297 79.26074219 C39.59089844 78.04257812 39.59089844 78.04257812 39.63232422 76.79980469 C39.67495415 74.28076358 39.62647458 71.77874497 39.55029297 69.26074219 C39.55673828 68.55433594 39.56318359 67.84792969 39.56982422 67.12011719 C39.21075151 57.88681905 33.90579551 48.26485353 27.61279297 41.69824219 C18.96144302 33.91369416 10.92723927 30.76536986 -0.71142578 31.00683594 C-11.51939028 32.00900098 -21.07373224 38.13764975 -28.01220703 46.26074219 Z " fill="#1F1F1F" transform="translate(1265.44970703125,231.7392578125)"/>
<path d="M0 0 C1.24587891 -0.01611328 2.49175781 -0.03222656 3.77539062 -0.04882812 C18.30491564 -0.05645517 34.13287111 3.95199003 45.28515625 13.83984375 C46.5625 15.3125 46.5625 15.3125 46.5625 17.3125 C47.2225 17.3125 47.8825 17.3125 48.5625 17.3125 C58.92078696 27.64041075 60.66142619 41.40885431 60.79956055 55.26098633 C60.81267273 56.22293915 60.82578491 57.18489197 60.83929443 58.17599487 C60.88082694 61.33213455 60.91548901 64.48829915 60.94921875 67.64453125 C60.97489377 69.84551619 61.00067767 72.04649986 61.02656555 74.2474823 C61.07938789 78.84781974 61.12834121 83.44818062 61.17504883 88.04858398 C61.23565658 93.95141208 61.30986857 99.85398535 61.38742352 105.75661182 C61.44490556 110.29546199 61.49325349 114.83437565 61.539011 119.37335777 C61.56244641 121.55075551 61.5892089 123.72812004 61.61932945 125.90543556 C61.66034372 128.9406097 61.68860887 131.97564407 61.71362305 135.01098633 C61.73607841 136.36453972 61.73607841 136.36453972 61.75898743 137.74543762 C61.76320709 138.57100159 61.76742676 139.39656555 61.77177429 140.24714661 C61.7796934 140.96405072 61.78761251 141.68095484 61.7957716 142.41958332 C61.5625 144.3125 61.5625 144.3125 59.5625 147.3125 C56.4296875 147.68481445 56.4296875 147.68481445 52.4375 147.67578125 C51.7347998 147.67627975 51.03209961 147.67677826 50.30810547 147.67729187 C48.82191135 147.67495061 47.33571333 147.66521888 45.84960938 147.64868164 C43.57125495 147.62509065 41.29407047 147.62811934 39.015625 147.63476562 C27.84157256 147.59157256 27.84157256 147.59157256 25.5625 145.3125 C25.1484375 142.2734375 25.1484375 142.2734375 24.9375 138.6875 C24.86273437 137.49898437 24.78796875 136.31046875 24.7109375 135.0859375 C24.63746094 133.71308594 24.63746094 133.71308594 24.5625 132.3125 C23.94375 132.9725 23.325 133.6325 22.6875 134.3125 C10.33209368 146.42699311 -0.53012279 150.71611024 -17.6875 150.8125 C-18.78835938 150.81894531 -19.88921875 150.82539063 -21.0234375 150.83203125 C-34.22564889 150.62524963 -44.16799638 146.59070767 -54.1875 137.9375 C-63.59783733 126.95877311 -69.03950316 116.66923428 -68.69140625 101.88671875 C-67.64274495 91.25490644 -63.4291654 80.61916551 -55.4375 73.3125 C-54.7775 73.3125 -54.1175 73.3125 -53.4375 73.3125 C-53.1075 72.3225 -52.7775 71.3325 -52.4375 70.3125 C-47.22603575 65.84941834 -40.96936852 63.95496112 -34.4375 62.3125 C-33.29925781 61.97710205 -32.16101562 61.6417041 -30.98828125 61.29614258 C-25.66669656 59.97279891 -20.39691156 59.95963233 -14.9375 59.8984375 C-13.86121338 59.87907135 -12.78492676 59.8597052 -11.67602539 59.8397522 C-8.26326235 59.78032459 -4.85046491 59.73371874 -1.4375 59.6875 C0.88673286 59.64928633 3.21095207 59.61023266 5.53515625 59.5703125 C11.21081568 59.47465358 16.88655839 59.38949995 22.5625 59.3125 C22.45474598 57.07490868 22.33206947 54.83803275 22.203125 52.6015625 C22.10306152 50.73298584 22.10306152 50.73298584 22.00097656 48.82666016 C21.23001228 42.64778498 18.45794947 39.06925804 14 34.9375 C13.195625 34.40125 12.39125 33.865 11.5625 33.3125 C10.76585937 32.78076172 10.76585937 32.78076172 9.953125 32.23828125 C3.1823434 29.61626288 -6.78808212 30.0945181 -13.5859375 32.36328125 C-17.73806319 34.60624204 -17.73806319 34.60624204 -20.4375 38.3125 C-21.0975 38.3125 -21.7575 38.3125 -22.4375 38.3125 C-22.61925781 38.99957031 -22.80101562 39.68664062 -22.98828125 40.39453125 C-23.36533203 41.74611328 -23.36533203 41.74611328 -23.75 43.125 C-23.99363281 44.01832031 -24.23726562 44.91164063 -24.48828125 45.83203125 C-25.47852479 48.41970471 -26.19866808 49.69795775 -28.4375 51.3125 C-36.92757202 51.16860047 -45.27541543 48.5055156 -53.4375 46.3125 C-54.69304687 45.98121094 -55.94859375 45.64992188 -57.2421875 45.30859375 C-60.4375 44.3125 -60.4375 44.3125 -63.4375 42.3125 C-62.03238535 33.60078915 -58.27258401 27.56512602 -53.4375 20.3125 C-52.7775 20.3125 -52.1175 20.3125 -51.4375 20.3125 C-51.1075 19.3225 -50.7775 18.3325 -50.4375 17.3125 C-49.7775 17.3125 -49.1175 17.3125 -48.4375 17.3125 C-48.4375 16.6525 -48.4375 15.9925 -48.4375 15.3125 C-33.66994558 3.45132597 -18.49152284 -0.04768314 0 0 Z M-24.01953125 92.77734375 C-28.09419325 97.18875467 -28.49936696 101.50584425 -28.4375 107.3125 C-26.54639177 113.72125566 -23.25531287 117.31941285 -17.875 121.125 C-11.16053337 123.44454302 -4.12384955 123.37133492 2.4375 120.5625 C3.83069673 119.84686889 5.2075792 119.09819372 6.5625 118.3125 C7.18511719 117.95414063 7.80773438 117.59578125 8.44921875 117.2265625 C10.30011916 116.11777733 10.30011916 116.11777733 12.5625 114.3125 C12.5625 113.6525 12.5625 112.9925 12.5625 112.3125 C13.2225 112.3125 13.8825 112.3125 14.5625 112.3125 C20.86106567 104.56041918 23.58410168 97.39099346 22.5625 87.3125 C20.51815948 85.26815948 16.43602474 86.14222077 13.70117188 86.12158203 C-6.36720197 85.13646074 -6.36720197 85.13646074 -24.01953125 92.77734375 Z " fill="#1F1F1F" transform="translate(1592.4375,231.6875)"/>
<path d="M0 0 C1.29808594 -0.01611328 2.59617187 -0.03222656 3.93359375 -0.04882812 C20.86657891 -0.05737151 34.53209789 5.00674056 46.78515625 16.890625 C47.55730469 17.68984375 48.32945312 18.4890625 49.125 19.3125 C49.65996094 19.86421875 50.19492187 20.4159375 50.74609375 20.984375 C61.00935181 33.38980842 59.80642796 50.70817721 59.6484375 65.7109375 C59.64163624 68.04122417 59.63692119 70.37151776 59.63418579 72.70181274 C59.62357475 77.55141611 59.59704091 82.40055034 59.55712891 87.25 C59.50586636 93.47891152 59.48103857 99.70755625 59.46619225 105.93665123 C59.4514559 111.88228374 59.42623249 117.82785335 59.3984375 123.7734375 C59.39352673 124.91069653 59.38861595 126.04795555 59.38355637 127.21967697 C59.36736994 130.41263575 59.34397632 133.60544861 59.31787109 136.79833984 C59.31361115 137.75300644 59.3093512 138.70767303 59.30496216 139.69126892 C59.29636169 140.55445236 59.28776123 141.4176358 59.27890015 142.30697632 C59.27332785 143.06087835 59.26775555 143.81478039 59.26201439 144.59152794 C59.125 146.3125 59.125 146.3125 58.125 147.3125 C55.7493148 147.4008967 53.40291326 147.42780305 51.02734375 147.41015625 C49.96405602 147.40803383 49.96405602 147.40803383 48.87928772 147.40586853 C46.60698288 147.40025443 44.33477525 147.38769963 42.0625 147.375 C40.52539204 147.36998681 38.98828255 147.36542359 37.45117188 147.36132812 C33.67574358 147.35028042 29.90038829 147.33300641 26.125 147.3125 C24.74417037 142.6367639 23.71811128 138.15624212 23.125 133.3125 C21.12516466 134.10367904 21.12516466 134.10367904 19.125 135.3125 C18.795 136.3025 18.465 137.2925 18.125 138.3125 C17.465 138.3125 16.805 138.3125 16.125 138.3125 C16.125 138.9725 16.125 139.6325 16.125 140.3125 C13.48882489 142.2250192 10.97660501 143.76824621 8.125 145.3125 C7.30773437 145.786875 6.49046875 146.26125 5.6484375 146.75 C-6.36132219 152.57291379 -23.34481975 152.62720708 -36.16015625 149.42578125 C-44.67150605 146.37224574 -52.80395487 141.04433915 -58.875 134.3125 C-58.875 133.6525 -58.875 132.9925 -58.875 132.3125 C-59.535 132.3125 -60.195 132.3125 -60.875 132.3125 C-68.30866435 119.88388331 -70.95751917 108.16793041 -68.1953125 93.76953125 C-67.50841591 91.2410976 -66.76840265 88.77467516 -65.875 86.3125 C-65.215 86.3125 -64.555 86.3125 -63.875 86.3125 C-63.75125 85.735 -63.6275 85.1575 -63.5 84.5625 C-62.86851176 82.28914233 -61.98641809 80.3871471 -60.875 78.3125 C-60.215 78.3125 -59.555 78.3125 -58.875 78.3125 C-58.6275 77.735 -58.38 77.1575 -58.125 76.5625 C-56.69200012 73.98310021 -55.09075324 72.25128408 -52.875 70.3125 C-52.215 70.3125 -51.555 70.3125 -50.875 70.3125 C-50.875 69.6525 -50.875 68.9925 -50.875 68.3125 C-49.32102862 67.52461471 -47.75601231 66.7585245 -46.1875 66 C-44.88232422 65.35611328 -44.88232422 65.35611328 -43.55078125 64.69921875 C-29.77733986 59.50307455 -16.106901 59.77030811 -1.5625 59.625 C0.73895109 59.59177249 3.04038426 59.55727795 5.34179688 59.52148438 C10.93607491 59.43720616 16.53037212 59.36860086 22.125 59.3125 C22.17608169 57.58234433 22.21219852 55.85174352 22.2421875 54.12109375 C22.26394043 53.15743896 22.28569336 52.19378418 22.30810547 51.20092773 C22.02324489 46.707347 20.24230153 43.21482581 18.125 39.3125 C17.80015625 38.59191406 17.4753125 37.87132812 17.140625 37.12890625 C15.6790125 34.51486851 13.90669468 34.23973156 11.125 33.3125 C10.59261719 32.9721875 10.06023437 32.631875 9.51171875 32.28125 C5.83325093 30.78818941 2.2450605 30.94388921 -1.6875 30.9375 C-2.46931641 30.91300781 -3.25113281 30.88851563 -4.05664062 30.86328125 C-9.85521966 30.83421569 -13.02750747 32.17187104 -17.875 35.3125 C-18.535 35.3125 -19.195 35.3125 -19.875 35.3125 C-20.30619141 36.17681641 -20.30619141 36.17681641 -20.74609375 37.05859375 C-21.46323673 38.49039825 -22.18416007 39.92032036 -22.91015625 41.34765625 C-23.24917969 42.01667969 -23.58820312 42.68570313 -23.9375 43.375 C-24.27910156 44.04660156 -24.62070312 44.71820313 -24.97265625 45.41015625 C-25.98990381 47.45578314 -25.98990381 47.45578314 -26.875 50.3125 C-30.88282674 51.64844225 -34.19504022 50.78742068 -38.25 50.0625 C-39.45088257 49.85379272 -39.45088257 49.85379272 -40.67602539 49.64086914 C-59.35345995 46.32686003 -59.35345995 46.32686003 -63.875 43.3125 C-63.22488722 35.67367488 -60.32355997 28.58092541 -55.875 22.3125 C-55.215 22.3125 -54.555 22.3125 -53.875 22.3125 C-53.6275 21.735 -53.38 21.1575 -53.125 20.5625 C-51.69200012 17.98310021 -50.09075324 16.25128408 -47.875 14.3125 C-47.215 14.3125 -46.555 14.3125 -45.875 14.3125 C-45.875 13.6525 -45.875 12.9925 -45.875 12.3125 C-31.06234101 3.31773291 -17.15062281 -0.04232631 0 0 Z M-26.875 95.3125 C-29.08415895 101.69451475 -29.94009655 106.42879593 -27.0625 112.625 C-26.11550583 114.66515788 -26.11550583 114.66515788 -24.875 116.3125 C-23.885 116.6425 -22.895 116.9725 -21.875 117.3125 C-21.875 117.9725 -21.875 118.6325 -21.875 119.3125 C-16.05493097 123.30340448 -9.72119684 123.18981584 -2.875 122.3125 C1.00342626 120.9859124 4.55338591 119.31661211 8.125 117.3125 C8.125 116.6525 8.125 115.9925 8.125 115.3125 C8.7025 115.065 9.28 114.8175 9.875 114.5625 C12.47408658 113.11856301 14.20336838 111.57728013 16.125 109.3125 C16.125 108.3225 16.125 107.3325 16.125 106.3125 C16.785 106.3125 17.445 106.3125 18.125 106.3125 C21.24087505 101.0721647 22.78968798 95.41517884 23.125 89.3125 C22.465 88.3225 21.805 87.3325 21.125 86.3125 C18.83903324 85.86288401 18.83903324 85.86288401 16.171875 85.94921875 C15.16640625 85.94817139 14.1609375 85.94712402 13.125 85.94604492 C11.51625 85.97275269 11.51625 85.97275269 9.875 86 C8.24304688 86.01800659 8.24304688 86.01800659 6.578125 86.03637695 C-11.70056714 86.14834425 -11.70056714 86.14834425 -26.875 95.3125 Z " fill="#1F1F1F" transform="translate(793.875,231.6875)"/>
<path d="M0 0 C2.4296875 1.76171875 2.4296875 1.76171875 4.125 3.3125 C4.125 3.9725 4.125 4.6325 4.125 5.3125 C4.70121094 5.52777344 5.27742187 5.74304688 5.87109375 5.96484375 C12.39909702 9.86806928 16.54742614 19.07036313 18.65234375 26.1796875 C20.00005653 32.26110219 20.27332554 38.01427929 20.27026367 44.2175293 C20.27362228 45.1986972 20.2769809 46.17986511 20.28044128 47.19076538 C20.28991424 50.42276282 20.29189214 53.65470831 20.29296875 56.88671875 C20.29618237 59.13540162 20.29954652 61.38408429 20.30305481 63.63276672 C20.30903583 68.33924851 20.31089561 73.04571195 20.31030273 77.75219727 C20.31020083 83.79174124 20.32388726 89.8311684 20.34107494 95.87068462 C20.3521715 100.51083419 20.35422272 105.15095523 20.35369301 109.79111671 C20.35487535 112.01871966 20.35931128 114.24632329 20.36702538 116.47391319 C20.37678385 119.58124482 20.37396432 122.68831884 20.36791992 125.7956543 C20.37353943 126.71986679 20.37915894 127.64407928 20.38494873 128.59629822 C20.38075424 129.44158081 20.37655975 130.2868634 20.37223816 131.15776062 C20.37278293 131.89201106 20.37332769 132.6262615 20.37388897 133.38276196 C20.125 135.3125 20.125 135.3125 18.125 138.3125 C15.42959685 138.57936213 12.96652536 138.66068073 10.2734375 138.60546875 C9.49940582 138.60122391 8.72537415 138.59697906 7.92788696 138.59260559 C5.45157323 138.57578998 2.97606842 138.53813395 0.5 138.5 C-1.17707159 138.48495682 -2.85415592 138.47126778 -4.53125 138.45898438 C-8.64614581 138.42587721 -12.76043569 138.37407637 -16.875 138.3125 C-17.75990703 133.77740946 -17.98629064 129.51000738 -17.95678711 124.89282227 C-17.95372055 124.17476913 -17.95065399 123.456716 -17.94749451 122.71690369 C-17.940371 121.16516043 -17.93099776 119.61342619 -17.91959953 118.06170845 C-17.90207729 115.59133935 -17.89186621 113.12103621 -17.88368225 110.65061951 C-17.85936157 103.6287512 -17.82405052 96.60697089 -17.77905273 89.58520508 C-17.75197309 85.27942938 -17.73512278 80.97370547 -17.72418404 76.66786003 C-17.71805139 75.04187048 -17.70814651 73.41588991 -17.69410515 71.78994942 C-17.00656484 53.271299 -17.00656484 53.271299 -22.875 36.3125 C-22.875 35.6525 -22.875 34.9925 -22.875 34.3125 C-23.535 34.3125 -24.195 34.3125 -24.875 34.3125 C-24.875 33.6525 -24.875 32.9925 -24.875 32.3125 C-25.41125 32.044375 -25.9475 31.77625 -26.5 31.5 C-28.875 30.3125 -28.875 30.3125 -31.46875 28.765625 C-35.72869307 26.94830984 -39.17421369 26.83298527 -43.75 26.875 C-44.89662109 26.8450293 -44.89662109 26.8450293 -46.06640625 26.81445312 C-53.83371693 26.82104677 -60.30174443 29.89405709 -65.875 35.3125 C-70.66420152 42.13752934 -72.17222188 48.81996989 -72.16210938 57.04003906 C-72.17235893 58.32400574 -72.17235893 58.32400574 -72.18281555 59.63391113 C-72.19635723 61.48357792 -72.20544017 63.33328166 -72.21052551 65.18299103 C-72.21883425 68.10778278 -72.2393542 71.03226529 -72.26306152 73.95697021 C-72.31938674 81.21506221 -72.35475842 88.47322886 -72.39068604 95.73144531 C-72.42187767 101.87584202 -72.46100788 108.02008618 -72.51094055 114.16436005 C-72.53105767 117.05053204 -72.53933589 119.93658735 -72.54724121 122.82281494 C-72.56020654 124.58272738 -72.57372581 126.34263586 -72.58789062 128.10253906 C-72.58690872 128.90878723 -72.58592682 129.7150354 -72.58491516 130.54571533 C-72.64730357 136.08480357 -72.64730357 136.08480357 -74.875 138.3125 C-77.43250453 138.5120697 -79.87938141 138.59236826 -82.4375 138.578125 C-83.18459229 138.58003845 -83.93168457 138.5819519 -84.70141602 138.58392334 C-86.28174171 138.58528498 -87.86207858 138.58159 -89.44238281 138.57324219 C-91.86548922 138.562542 -94.28785423 138.57313779 -96.7109375 138.5859375 C-98.24479331 138.5846159 -99.77864865 138.5820535 -101.3125 138.578125 C-102.03961182 138.58217346 -102.76672363 138.58622192 -103.51586914 138.59039307 C-108.64507639 138.54242361 -108.64507639 138.54242361 -110.875 136.3125 C-111.12109566 133.86435509 -111.12109566 133.86435509 -111.11550903 130.71908569 C-111.11825836 129.52994064 -111.12100769 128.34079559 -111.12384033 127.11561584 C-111.11664978 125.80435226 -111.10945923 124.49308868 -111.10205078 123.14208984 C-111.10148687 121.75265003 -111.10180284 120.36320961 -111.10293579 118.97377014 C-111.10351109 115.19503158 -111.09172832 111.41641925 -111.07778788 107.63771009 C-111.06530986 103.69122929 -111.06411234 99.74474578 -111.06173706 95.79824829 C-111.05551365 88.3219762 -111.03909124 80.8457624 -111.01903808 73.36951602 C-110.9967058 64.85936163 -110.98569238 56.3492045 -110.97564721 47.83902812 C-110.95472573 30.33015166 -110.91953309 12.82133199 -110.875 -4.6875 C-107.36322793 -5.85809069 -104.57568757 -5.81702308 -100.87109375 -5.8203125 C-100.19200455 -5.82126923 -99.51291534 -5.82222595 -98.81324768 -5.82321167 C-97.38013618 -5.82389124 -95.94702158 -5.82205253 -94.51391602 -5.81787109 C-92.31715006 -5.81251135 -90.12058779 -5.81782782 -87.92382812 -5.82421875 C-86.53124955 -5.82355809 -85.1386711 -5.82227718 -83.74609375 -5.8203125 C-82.47693115 -5.81918457 -81.20776855 -5.81805664 -79.90014648 -5.81689453 C-76.875 -5.6875 -76.875 -5.6875 -74.875 -4.6875 C-74.875 -0.3975 -74.875 3.8925 -74.875 8.3125 C-73.92625 7.4875 -72.9775 6.6625 -72 5.8125 C-69.125 3.3125 -69.125 3.3125 -66.875 3.3125 C-66.875 2.6525 -66.875 1.9925 -66.875 1.3125 C-66.11574219 0.90257812 -65.35648438 0.49265625 -64.57421875 0.0703125 C-63.58035156 -0.46851563 -62.58648438 -1.00734375 -61.5625 -1.5625 C-60.57636719 -2.09617188 -59.59023438 -2.62984375 -58.57421875 -3.1796875 C-55.77913542 -4.69472126 -55.77913542 -4.69472126 -52.875 -6.6875 C-35.95787671 -13.08549683 -14.73061985 -9.75240483 0 0 Z " fill="#1F1F1F" transform="translate(986.875,240.6875)"/>
<path d="M0 0 C1.21238557 -0.00322445 2.42477113 -0.00644889 3.67389566 -0.00977105 C5.02110067 -0.00829987 6.36830557 -0.00673215 7.71551037 -0.00507832 C9.14528008 -0.00694614 10.57504928 -0.00924672 12.00481766 -0.01194364 C15.93861791 -0.01807167 19.87239693 -0.01792686 23.80620086 -0.01674926 C28.04693454 -0.01654551 32.28766135 -0.02206161 36.52839184 -0.02680683 C44.8387744 -0.03511954 53.14914986 -0.03786196 61.45953623 -0.03841921 C68.2137685 -0.0388941 74.96799843 -0.04094747 81.72222996 -0.04411983 C100.86526127 -0.05292826 120.00828697 -0.05753894 139.15132032 -0.05678936 C140.1837071 -0.0567494 141.21609389 -0.05670945 142.27976513 -0.05666828 C143.83023285 -0.05660696 143.83023285 -0.05660696 145.41202315 -0.0565444 C162.16505286 -0.05613792 178.9180601 -0.06570746 195.67108331 -0.07980665 C212.86664405 -0.09416425 230.06219382 -0.10107717 247.2577607 -0.10021287 C256.91428335 -0.09988068 266.57078244 -0.10263748 276.22729969 -0.11339092 C284.44907525 -0.12248784 292.67081657 -0.12467785 300.89259497 -0.1178815 C305.08784095 -0.11461215 309.28302122 -0.11457456 313.47826099 -0.12323475 C317.31936915 -0.13108239 321.16035929 -0.12968613 325.00146451 -0.12095062 C326.39042448 -0.11941179 327.77939319 -0.12124619 329.16834287 -0.12681069 C341.96533288 -0.17467985 341.96533288 -0.17467985 348.10813427 2.12863445 C348.10813427 2.78863445 348.10813427 3.44863445 348.10813427 4.12863445 C349.09813427 4.45863445 350.08813427 4.78863445 351.10813427 5.12863445 C354.54419983 9.70193212 354.7297884 13.54243439 354.59250927 19.1091032 C353.83971294 23.80193837 351.71984317 27.07317573 348.10813427 30.12863445 C344.29695435 31.97054573 341.24671538 32.38030372 337.03354454 32.38590336 C335.80585104 32.39235225 334.57815754 32.39880114 333.31326121 32.40544546 C331.95396616 32.40250329 330.59467152 32.39936786 329.23537731 32.39605999 C327.78895623 32.3997967 326.34253718 32.4043983 324.89612132 32.40979064 C320.92088742 32.42203357 316.9457376 32.42175865 312.97048914 32.41940188 C308.68339051 32.41899404 304.39631895 32.43002973 300.1092329 32.43951702 C291.70974746 32.4561351 283.31029008 32.46162693 274.91078957 32.46274178 C268.08364626 32.46369187 261.25651221 32.46780023 254.42937183 32.47414303 C235.07596071 32.49175766 215.72257177 32.50098155 196.36915257 32.49948208 C195.32564592 32.49940217 194.28213928 32.49932226 193.20701122 32.49923992 C192.16223143 32.49915816 191.11745164 32.4990764 190.04101185 32.49899216 C173.10762997 32.4981792 156.17433703 32.51731873 139.24098089 32.54551665 C121.85666684 32.57423725 104.47239619 32.5880574 87.08805782 32.5863291 C77.32697279 32.58566491 67.565981 32.59116983 57.80491734 32.6126852 C49.49423102 32.63088615 41.18368019 32.63525329 32.87298258 32.62166636 C28.63297897 32.61513119 24.39323538 32.61503917 20.15325642 32.63237286 C16.27007385 32.64808459 12.3873579 32.64525969 8.50418685 32.62780459 C7.10110562 32.62473048 5.69798973 32.62838267 4.29494938 32.63952474 C-3.53703972 32.69759111 -9.23141528 32.43841113 -15.89186573 28.12863445 C-19.55769727 24.46280291 -19.77083006 20.76261595 -20.14186573 15.75363445 C-19.84675347 11.4745067 -19.06112587 8.83736953 -16.89186573 5.12863445 C-11.68509785 0.96573549 -6.47335201 0.00434786 0 0 Z " fill="#F63030" transform="translate(126.89186573028564,351.8713655471802)"/>
<path d="M0 0 C2.04514063 0.00315758 4.08882644 -0.02036237 6.13378906 -0.0456543 C14.10149846 -0.08413982 21.13142405 0.71509136 28.68066406 3.31567383 C29.77121094 3.66629883 30.86175781 4.01692383 31.98535156 4.37817383 C33.25765625 4.84223633 33.25765625 4.84223633 34.55566406 5.31567383 C35.41933594 5.62504883 36.28300781 5.93442383 37.17285156 6.25317383 C39.86963488 7.39573623 42.26701224 8.65466612 44.68066406 10.31567383 C44.68066406 10.97567383 44.68066406 11.63567383 44.68066406 12.31567383 C45.2465625 12.5502832 45.81246094 12.78489258 46.39550781 13.02661133 C52.15706539 16.27672073 57.30446754 22.52060093 59.80566406 28.62817383 C60.66236774 32.23856788 60.53309226 33.82792185 59.68066406 37.31567383 C53.32694592 39.21371251 46.93874127 40.74992923 40.43066406 42.00317383 C39.77001953 42.1344165 39.109375 42.26565918 38.42871094 42.40087891 C34.1219354 43.20435768 30.04749006 43.79321252 25.68066406 43.31567383 C23.82519531 41.45239258 23.82519531 41.45239258 22.49316406 39.00317383 C19.56932547 33.77059814 16.48057114 31.06381484 10.68066406 29.31567383 C7.84139408 29.07486789 5.14252712 28.94563338 2.30566406 28.94067383 C1.21125 28.90393555 1.21125 28.90393555 0.09472656 28.86645508 C-5.48271409 28.83657593 -8.73344208 30.12806285 -13.31933594 33.31567383 C-13.81433594 34.30567383 -13.81433594 34.30567383 -14.31933594 35.31567383 C-14.97933594 35.31567383 -15.63933594 35.31567383 -16.31933594 35.31567383 C-16.59801989 36.7060644 -16.84102525 38.10362929 -17.06933594 39.50317383 C-17.20855469 40.28047852 -17.34777344 41.0577832 -17.49121094 41.85864258 C-17.24202875 45.42081525 -15.80971296 46.82117367 -13.31933594 49.31567383 C-3.78165052 54.7452598 7.33737637 56.69271364 17.99316406 58.69067383 C32.77101896 61.62206836 51.18463151 66.62915124 60.30566406 79.62817383 C67.33276246 90.16882142 67.91784145 102.18974048 65.48535156 114.51879883 C63.82279401 120.29739691 60.99923087 125.33782362 57.68066406 130.31567383 C57.02066406 130.31567383 56.36066406 130.31567383 55.68066406 130.31567383 C55.68066406 130.97567383 55.68066406 131.63567383 55.68066406 132.31567383 C40.06974462 147.07923647 22.56650125 150.78426825 1.74316406 150.81567383 C0.67630371 150.82227524 0.67630371 150.82227524 -0.41210938 150.82901001 C-11.16502226 150.85674127 -21.13543067 149.92893821 -30.75683594 144.75317383 C-31.93052734 144.13249023 -31.93052734 144.13249023 -33.12792969 143.49926758 C-33.85109375 143.10868164 -34.57425781 142.7180957 -35.31933594 142.31567383 C-36.65038621 141.64446045 -37.9829724 140.97624533 -39.31933594 140.31567383 C-39.31933594 139.65567383 -39.31933594 138.99567383 -39.31933594 138.31567383 C-39.8878125 138.07719727 -40.45628906 137.8387207 -41.04199219 137.59301758 C-49.05742039 133.09722852 -54.76634928 123.95077574 -57.31933594 115.31567383 C-57.66533255 112.1743888 -57.57914757 109.48537571 -57.31933594 106.31567383 C-42.76270236 103.26626047 -42.76270236 103.26626047 -37.00683594 102.69067383 C-33.50110541 102.55423644 -33.50110541 102.55423644 -31.31933594 101.31567383 C-28.64697384 101.1815191 -25.99683105 101.27248842 -23.31933594 101.31567383 C-23.05121094 102.11231445 -22.78308594 102.90895508 -22.50683594 103.72973633 C-19.36321926 112.22991036 -16.12177977 116.4093887 -8.08105469 120.43676758 C-0.28458383 122.9179641 10.11149714 122.64633315 17.49316406 119.06567383 C21.81112273 116.46608647 25.04724421 114.21593337 26.68066406 109.31567383 C27.05677313 104.23820144 26.74502139 101.40367087 23.68066406 97.31567383 C15.97475131 92.75149757 6.63147154 91.28848803 -2.07495117 89.74707031 C-7.70403666 88.7369232 -12.92925318 87.2095217 -18.31933594 85.31567383 C-19.35960937 84.99985352 -20.39988281 84.6840332 -21.47167969 84.35864258 C-34.00658711 80.50850972 -45.4971708 73.8281685 -52.31933594 62.31567383 C-55.08850833 56.14189093 -55.78658086 51.1069288 -55.69433594 44.37817383 C-55.7059375 43.53577148 -55.71753906 42.69336914 -55.72949219 41.82543945 C-55.70182482 35.83545508 -54.53159828 30.8715263 -52.31933594 25.31567383 C-51.65933594 25.31567383 -50.99933594 25.31567383 -50.31933594 25.31567383 C-50.07183594 24.59379883 -49.82433594 23.87192383 -49.56933594 23.12817383 C-45.16975737 13.22912205 -34.68660538 7.59491525 -25.21777344 3.32348633 C-16.85251243 0.41481067 -8.81364946 -0.0283972 0 0 Z " fill="#1F1F1F" transform="translate(1726.3193359375,231.684326171875)"/>
<path d="M0 0 C0 0.66 0 1.32 0 2 C0.57492187 2.27070312 1.14984375 2.54140625 1.7421875 2.8203125 C4.03283183 4.01715435 6.04240326 5.34670657 8.125 6.875 C9.14980469 7.61363281 9.14980469 7.61363281 10.1953125 8.3671875 C13.42057576 11.28528283 13.95359416 13.26773162 14.23046875 17.63671875 C14.22650884 18.98704932 14.21190742 20.33738422 14.1875 21.6875 C14.18685547 22.37650391 14.18621094 23.06550781 14.18554688 23.77539062 C14.14055525 28.85944475 14.14055525 28.85944475 13 30 C11.4651703 30.09319449 9.92607918 30.117458 8.38842773 30.11352539 C7.40748642 30.11344986 6.4265451 30.11337433 5.4158783 30.11329651 C4.3492244 30.10813522 3.2825705 30.10297394 2.18359375 30.09765625 C0.55430687 30.09553383 0.55430687 30.09553383 -1.1078949 30.09336853 C-4.59279075 30.08775048 -8.07762342 30.07519492 -11.5625 30.0625 C-13.91861887 30.05748733 -16.27473874 30.05292402 -18.63085938 30.04882812 C-24.42059464 30.03777519 -30.21029281 30.02101951 -36 30 C-36.09814419 27.26474762 -36.16987324 24.53303942 -36.2265625 21.796875 C-36.25693604 21.02585449 -36.28730957 20.25483398 -36.31860352 19.46044922 C-36.37822501 15.62411468 -36.32597533 13.54384226 -34.31201172 10.18383789 C-32.32885807 8.20393368 -30.29246043 6.60721411 -28 5 C-26.95396077 4.02550591 -25.91175497 3.04686576 -24.875 2.0625 C-18.15897352 -2.755519 -7.79975921 -1.64205457 0 0 Z " fill="#F23030" transform="translate(305,104)"/>
<path d="M0 0 C0 3 0 3 -1.8984375 5.15625 C-2.71570313 5.9296875 -3.53296875 6.703125 -4.375 7.5 C-6.95217904 9.95445623 -9.01930122 12.02895183 -11 15 C-13.71247864 15.38526917 -13.71247864 15.38526917 -17.20629883 15.40063477 C-18.51137894 15.41397354 -19.81645905 15.42731232 -21.16108704 15.4410553 C-22.59306844 15.44119054 -24.02504984 15.44130707 -25.45703125 15.44140625 C-26.92194442 15.4531753 -28.38684559 15.46653837 -29.85173035 15.48143005 C-33.71480377 15.51768607 -37.57777089 15.53783376 -41.440979 15.55297852 C-47.61396327 15.5777626 -53.78671218 15.61756456 -59.95947838 15.67487907 C-62.11373282 15.6911733 -64.26776496 15.69498335 -66.42207336 15.69789124 C-67.73660995 15.70807785 -69.05114655 15.71826447 -70.40551758 15.72875977 C-71.56086502 15.73303482 -72.71621246 15.73730988 -73.90657043 15.74171448 C-77.01508845 16.00125981 -79.16074838 16.77332038 -82 18 C-82.99 18 -83.98 18 -85 18 C-85 17.34 -85 16.68 -85 16 C-80.10140579 13.63738502 -76.58337416 12.6280716 -71.05493164 12.65942383 C-70.40042023 12.65898575 -69.74590881 12.65854767 -69.07156372 12.65809631 C-66.93411147 12.66016626 -64.79746939 12.68340987 -62.66015625 12.70703125 C-61.16800871 12.71263364 -59.67585561 12.7169007 -58.18370056 12.71989441 C-54.27587372 12.73129267 -50.36838683 12.76071577 -46.46069336 12.79400635 C-42.4653788 12.82481619 -38.47000876 12.83842296 -34.47460938 12.85351562 C-26.6495854 12.88559102 -18.82484052 12.93672558 -11 13 C-10.71463379 12.38866211 -10.42926758 11.77732422 -10.13525391 11.14746094 C-8.64499488 8.32846774 -6.65721165 6.46700561 -4.375 4.25 C-3.55773437 3.45078125 -2.74046875 2.6515625 -1.8984375 1.828125 C-1.27195312 1.22484375 -0.64546875 0.6215625 0 0 Z " fill="#9D2929" transform="translate(173,190)"/>
<path d="M0 0 C2.475 0.99 2.475 0.99 5 2 C5 2.66 5 3.32 5 4 C20.84 4.33 36.68 4.66 53 5 C53 5.66 53 6.32 53 7 C46.54052286 7.07613738 40.0811617 7.12863649 33.62133789 7.16479492 C31.42435379 7.17987052 29.22739974 7.20033426 27.03051758 7.22631836 C23.87053 7.26275502 20.71094076 7.27973884 17.55078125 7.29296875 C16.08020012 7.31619453 16.08020012 7.31619453 14.57991028 7.33988953 C5.82854684 7.34204361 5.82854684 7.34204361 2 4 C2 3.34 2 2.68 2 2 C1.34 2 0.68 2 0 2 C0 1.34 0 0.68 0 0 Z " fill="#A92A2A" transform="translate(86,225)"/>
<path d="M0 0 C0.6737265 -0.00029205 1.347453 -0.00058411 2.04159546 -0.00088501 C4.25467081 0.0005014 6.46740383 0.01602967 8.68041992 0.03173828 C10.22026892 0.03547087 11.76012031 0.03831668 13.29997253 0.04031372 C17.34254575 0.04793084 21.38497406 0.0675627 25.42749023 0.08972168 C29.55670207 0.1102216 33.68593743 0.11932429 37.81518555 0.12939453 C45.9096529 0.15081052 54.00400274 0.18492312 62.09838867 0.22705078 C62.09838867 0.55705078 62.09838867 0.88705078 62.09838867 1.22705078 C60.87476372 1.23918106 60.87476372 1.23918106 59.62641907 1.2515564 C51.93129281 1.32956123 44.23635455 1.41686958 36.54145527 1.51457787 C32.58561509 1.56448151 28.62980085 1.61081193 24.67382812 1.64892578 C20.85467824 1.68585374 17.03574849 1.73223379 13.21678734 1.78511429 C11.76122088 1.80361841 10.30560729 1.81874103 8.84996986 1.83039474 C6.8079547 1.84732582 4.76643932 1.87637606 2.72460938 1.90820312 C1.56322952 1.92152679 0.40184967 1.93485046 -0.79472351 1.94857788 C-3.89895311 2.22681252 -6.06345623 3.00348965 -8.90161133 4.22705078 C-9.89161133 4.22705078 -10.88161133 4.22705078 -11.90161133 4.22705078 C-11.90161133 3.56705078 -11.90161133 2.90705078 -11.90161133 2.22705078 C-7.80333101 0.27402618 -4.5187704 -0.01652201 0 0 Z " fill="#B52B2B" transform="translate(99.901611328125,203.77294921875)"/>
<path d="M0 0 C0.66 0 1.32 0 2 0 C1.67 6.93 1.34 13.86 1 21 C-0.32 21.33 -1.64 21.66 -3 22 C-2.67 21.34 -2.34 20.68 -2 20 C-1.86094858 18.56486753 -1.77476567 17.12435839 -1.71875 15.68359375 C-1.68136719 14.83732422 -1.64398438 13.99105469 -1.60546875 13.11914062 C-1.53500285 11.32747998 -1.46469102 9.53581328 -1.39453125 7.74414062 C-1.35714844 6.89916016 -1.31976563 6.05417969 -1.28125 5.18359375 C-1.25095703 4.40556396 -1.22066406 3.62753418 -1.18945312 2.82592773 C-1 1 -1 1 0 0 Z " fill="#AB2A2A" transform="translate(119,289)"/>
<path d="M0 0 C-1.32 0.33 -2.64 0.66 -4 1 C-4 1.66 -4 2.32 -4 3 C-4.92232422 3.16435547 -4.92232422 3.16435547 -5.86328125 3.33203125 C-7.07564453 3.56986328 -7.07564453 3.56986328 -8.3125 3.8125 C-9.51326172 4.03873047 -9.51326172 4.03873047 -10.73828125 4.26953125 C-13.06334758 4.83082141 -13.06334758 4.83082141 -14.53125 6.53125 C-17.14014394 9.14014394 -20.4450556 8.70861111 -24 9 C-19.07704655 5.04549641 -6.34157019 -3.17078509 0 0 Z " fill="#B42A2A" transform="translate(237,154)"/>
<path d="M0 0 C8.2056037 -0.29599372 15.92437827 0.56205146 24 2 C24 2.33 24 2.66 24 3 C22.41773035 3.19627391 20.83410729 3.38165538 19.25 3.5625 C18.36828125 3.66691406 17.4865625 3.77132812 16.578125 3.87890625 C14.11567549 3.99456676 12.33461936 3.73638695 10 3 C10 2.34 10 1.68 10 1 C6.7 1 3.4 1 0 1 C0 0.67 0 0.34 0 0 Z " fill="#B22A2A" transform="translate(309,145)"/>
<path d="M0 0 C0.99 0.495 0.99 0.495 2 1 C2.66796875 3.14453125 2.66796875 3.14453125 3.1875 5.8125 C3.36667969 6.68519531 3.54585938 7.55789063 3.73046875 8.45703125 C3.99719949 10.97357778 3.78333107 12.61667355 3 15 C-0.25195722 10.12206417 -0.11325659 5.77608621 0 0 Z " fill="#B02A2A" transform="translate(107,364)"/>
<path d="M0 0 C0.33 0.66 0.66 1.32 1 2 C-0.97420135 4.52259061 -1.96745642 4.9929808 -5.1875 5.6875 C-6.5796875 5.8421875 -6.5796875 5.8421875 -8 6 C-6.68 5.34 -5.36 4.68 -4 4 C-4 3.34 -4 2.68 -4 2 C-2.68 1.34 -1.36 0.68 0 0 Z " fill="#B62B2B" transform="translate(202,168)"/>
<path d="M0 0 C0 3 0 3 -2 5.1875 C-2.66 5.785625 -3.32 6.38375 -4 7 C-4.66 6.67 -5.32 6.34 -6 6 C-2.25 1.125 -2.25 1.125 0 0 Z " fill="#C42C2C" transform="translate(52,263)"/>
</svg>
